<svg width="108" height="31" viewBox="0 0 108 31" fill="none" xmlns="http://www.w3.org/2000/svg">
<path d="M32.6891 20.4229L30.183 16.3527C30.183 16.3527 30.1737 16.3357 30.1681 16.3281L29.9705 16.0083C29.5976 15.401 28.9524 15.0377 28.2475 15.0358L24.2106 15.0225L23.929 15.4805L19.1052 23.3143L18.8385 23.7475L20.8598 27.0249C21.2328 27.6342 21.8779 27.9975 22.5883 27.9975H28.2457C28.9431 27.9975 29.6032 27.6247 29.9723 27.0268L30.1718 26.7033C30.1718 26.7033 30.1793 26.6938 30.1812 26.69L32.6909 22.6141C33.103 21.9481 33.103 21.0871 32.6909 20.4229H32.6891ZM31.9246 22.1278L29.4148 26.2037C29.4036 26.2226 29.3905 26.2377 29.3793 26.2529C29.2917 26.3531 29.178 26.3664 29.1277 26.3664C29.0698 26.3664 28.9281 26.3494 28.8367 26.2017L26.327 22.126C26.2989 22.0805 26.2747 22.0332 26.2524 21.9821C26.23 21.9329 26.2132 21.8838 26.1983 21.8326C26.1424 21.6283 26.1424 21.4088 26.1983 21.2044C26.2263 21.1042 26.2691 21.0038 26.3251 20.913L28.8311 16.841C28.8311 16.841 28.8349 16.8353 28.8367 16.8315C28.8964 16.7406 28.971 16.699 29.0363 16.6858C29.0624 16.6783 29.0848 16.6763 29.1034 16.6726C29.1127 16.6726 29.122 16.6726 29.1314 16.6726C29.1892 16.6726 29.3327 16.6914 29.4222 16.8391L31.9283 20.9093C32.1577 21.2801 32.1577 21.757 31.9283 22.1278H31.9246Z" fill="#6A0DAD"/>
<path d="M25.2732 10.5746C25.6834 9.90661 25.6834 9.04754 25.2732 8.38338L22.767 4.31321L22.5582 3.97071C22.1834 3.36332 21.5383 3 20.8297 3H15.1724C14.4657 3 13.8205 3.36332 13.4439 3.97261L3.31326 20.4255C3.11001 20.7547 3 21.1351 3 21.5211C3 21.9071 3.10815 22.2874 3.3114 22.6148L6.02818 27.0293C6.40297 27.6386 7.04814 28 7.75483 28H13.4121C14.1226 28 14.7678 27.6368 15.1407 27.0274L15.3477 26.6944C15.3477 26.6944 15.3477 26.6944 15.3477 26.6906L15.3514 26.683L17.3708 23.4057L23.3563 13.6854L25.2694 10.5764L25.2732 10.5746ZM24.6821 9.479C24.6821 9.68901 24.6243 9.90094 24.5068 10.0883L14.5832 26.2062C14.4937 26.3519 14.3501 26.3689 14.2923 26.3689C14.2344 26.3689 14.0927 26.3519 14.0014 26.2062L11.4934 22.1285C11.266 21.7595 11.266 21.2845 11.4934 20.9118L21.4171 4.79761C21.5066 4.65002 21.6502 4.633 21.7079 4.633C21.7657 4.633 21.9093 4.65002 22.0007 4.79951L24.5068 8.86973C24.6243 9.05705 24.6821 9.26889 24.6821 9.479Z" fill="black"/>
<path fill-rule="evenodd" clip-rule="evenodd" d="M100.118 11.1855V27.6589H104.87V11.1855H100.118Z" fill="black"/>
<path d="M102.494 8.52523C101.726 8.52523 101.09 8.28648 100.586 7.80899C100.082 7.30877 99.83 6.69485 99.83 5.96725C99.83 5.26238 100.082 4.65984 100.586 4.15961C101.09 3.65938 101.726 3.40927 102.494 3.40927C103.286 3.40927 103.922 3.65938 104.402 4.15961C104.906 4.65984 105.158 5.26238 105.158 5.96725C105.158 6.69485 104.906 7.30877 104.402 7.80899C103.922 8.28648 103.286 8.52523 102.494 8.52523Z" fill="#6A0DAD"/>
<path d="M91.2235 27.6589V3H95.9395V27.6589H91.2235Z" fill="black"/>
<path d="M82.329 27.6589V3H87.045V27.6589H82.329Z" fill="black"/>
<path d="M70.7254 28C69.1894 28 67.8214 27.693 66.6214 27.0791C65.4454 26.4652 64.5214 25.6125 63.8494 24.5211C63.1774 23.4297 62.8414 22.1678 62.8414 20.7353V11.1855H67.5934V20.633C67.5934 21.3151 67.7134 21.9063 67.9534 22.4065C68.1934 22.884 68.5534 23.2478 69.0334 23.4979C69.5134 23.7481 70.0774 23.8731 70.7254 23.8731C71.7094 23.8731 72.4774 23.5889 73.0294 23.0205C73.5814 22.452 73.8574 21.6562 73.8574 20.633V11.1855H78.5734V20.7353C78.5734 22.1905 78.2374 23.4638 77.5654 24.5552C76.9174 25.6466 75.9934 26.4993 74.7934 27.1132C73.6174 27.7044 72.2614 28 70.7254 28Z" fill="black"/>
<path d="M49.4174 28C47.8334 28 46.4054 27.6248 45.1334 26.8745C43.8614 26.1241 42.8654 25.1009 42.1454 23.8049C41.4254 22.5089 41.0654 21.0537 41.0654 19.4393C41.0654 17.8022 41.4254 16.3356 42.1454 15.0396C42.8654 13.7435 43.8614 12.7203 45.1334 11.97C46.4054 11.2197 47.8334 10.8445 49.4174 10.8445C50.6654 10.8445 51.7814 11.0832 52.7654 11.5607C53.7494 12.0382 54.5294 12.709 55.1054 13.573C55.7054 14.4143 56.0294 15.3693 56.0774 16.4379V22.3724C56.0294 23.4638 55.7054 24.4302 55.1054 25.2715C54.5294 26.1128 53.7494 26.7835 52.7654 27.2838C51.7814 27.7612 50.6654 28 49.4174 28ZM50.2814 23.8731C51.6014 23.8731 52.6694 23.4638 53.4854 22.6453C54.3014 21.804 54.7094 20.724 54.7094 19.4052C54.7094 18.5412 54.5174 17.7794 54.1334 17.1201C53.7734 16.4379 53.2574 15.915 52.5854 15.5512C51.9374 15.1646 51.1694 14.9714 50.2814 14.9714C49.4174 14.9714 48.6494 15.1646 47.9774 15.5512C47.3294 15.915 46.8134 16.4379 46.4294 17.1201C46.0694 17.7794 45.8894 18.5412 45.8894 19.4052C45.8894 20.2919 46.0694 21.0764 46.4294 21.7585C46.8134 22.4179 47.3294 22.9409 47.9774 23.3274C48.6494 23.6912 49.4174 23.8731 50.2814 23.8731ZM54.4574 27.6589V23.2251L55.2134 19.2005L54.4574 15.2442V11.1855H59.1374V27.6589H54.4574Z" fill="black"/>
</svg>
