<svg width="40" height="35" viewBox="0 0 40 35" fill="none" xmlns="http://www.w3.org/2000/svg">
<path d="M34.6891 22.4229L32.183 18.3527C32.183 18.3527 32.1737 18.3357 32.1681 18.3281L31.9705 18.0083C31.5976 17.401 30.9524 17.0376 30.2475 17.0357L26.2106 17.0225L25.929 17.4805L21.1052 25.3142L20.8385 25.7475L22.8598 29.0248C23.2328 29.6342 23.8779 29.9974 24.5883 29.9974H30.2457C30.9431 29.9974 31.6032 29.6247 31.9724 29.0268L32.1718 28.7032C32.1718 28.7032 32.1793 28.6937 32.1812 28.69L34.6909 24.6141C35.103 23.948 35.103 23.087 34.6909 22.4229H34.6891ZM33.9246 24.1278L31.4148 28.2036C31.4036 28.2226 31.3905 28.2377 31.3793 28.2528C31.2917 28.3531 31.178 28.3664 31.1277 28.3664C31.0698 28.3664 30.9281 28.3493 30.8367 28.2017L28.327 24.126C28.299 24.0805 28.2747 24.0332 28.2524 23.9821C28.23 23.9329 28.2132 23.8837 28.1983 23.8326C28.1424 23.6283 28.1424 23.4087 28.1983 23.2044C28.2263 23.1042 28.2691 23.0038 28.3251 22.913L30.8311 18.841C30.8311 18.841 30.8349 18.8353 30.8367 18.8314C30.8964 18.7406 30.971 18.699 31.0363 18.6857C31.0624 18.6782 31.0848 18.6763 31.1034 18.6726C31.1127 18.6726 31.122 18.6726 31.1314 18.6726C31.1892 18.6726 31.3327 18.6914 31.4223 18.839L33.9283 22.9092C34.1577 23.28 34.1577 23.757 33.9283 24.1278H33.9246Z" fill="#47C826"/>
<path d="M27.2732 12.5746C27.6834 11.9066 27.6834 11.0475 27.2732 10.3834L24.7671 6.31321L24.5582 5.97071C24.1834 5.36332 23.5383 5 22.8297 5H17.1724C16.4657 5 15.8205 5.36332 15.4439 5.97261L5.31326 22.4255C5.11001 22.7547 5 23.1351 5 23.5211C5 23.9071 5.10815 24.2874 5.3114 24.6148L8.02819 29.0293C8.40297 29.6386 9.04814 30 9.75484 30H15.4121C16.1226 30 16.7678 29.6368 17.1407 29.0274L17.3477 28.6944C17.3477 28.6944 17.3477 28.6944 17.3477 28.6906L17.3514 28.683L19.3708 25.4057L25.3563 15.6854L27.2694 12.5764L27.2732 12.5746ZM26.6821 11.479C26.6821 11.689 26.6243 11.9009 26.5068 12.0883L16.5832 28.2062C16.4937 28.3519 16.3501 28.3689 16.2923 28.3689C16.2344 28.3689 16.0927 28.3519 16.0014 28.2062L13.4935 24.1285C13.266 23.7595 13.266 23.2845 13.4935 22.9118L23.4171 6.79761C23.5066 6.65002 23.6502 6.633 23.708 6.633C23.7657 6.633 23.9093 6.65002 24.0007 6.79951L26.5068 10.8697C26.6243 11.0571 26.6821 11.2689 26.6821 11.479Z" fill="#1D1F20"/>
</svg>
